<svg width="20" height="14" viewBox="0 0 20 14" fill="none" xmlns="http://www.w3.org/2000/svg">
<path fill-rule="evenodd" clip-rule="evenodd" d="M9.99557 0C7.19303 0 4.73938 1.72274 3.05337 3.31678C2.19683 4.1266 1.506 4.93401 1.02934 5.5384C0.790553 5.84111 0.604313 6.09446 0.476704 6.27376C0.412869 6.36347 0.363622 6.43471 0.32973 6.48449C0.312779 6.50938 0.299656 6.52887 0.290463 6.54267L0.279624 6.55895L0.276432 6.56382L0 7.01369L0.275401 7.43462L0.276432 7.43618L0.279624 7.44105L0.290463 7.45733C0.299656 7.47113 0.312779 7.49062 0.32973 7.51551C0.363622 7.56529 0.412869 7.63653 0.476704 7.72624C0.604313 7.90554 0.790553 8.15889 1.02934 8.4616C1.506 9.06598 2.19683 9.87342 3.05337 10.6832C4.73938 12.2773 7.19303 14 9.99557 14C12.7981 14 15.2516 12.2773 16.9377 10.6832C17.7942 9.87342 18.4851 9.06598 18.9617 8.4616C19.2005 8.15889 19.3867 7.90554 19.5144 7.72624C19.5781 7.63653 19.6274 7.56529 19.6613 7.51551C19.6783 7.49062 19.6914 7.47113 19.7006 7.45733L19.7114 7.44105L19.7146 7.43618L19.716 7.4341L20 7L19.7156 6.56538L19.7146 6.56382L19.7114 6.55895L19.7006 6.54267C19.6914 6.52887 19.6783 6.50938 19.6613 6.48449C19.6274 6.43471 19.5781 6.36347 19.5144 6.27376C19.3867 6.09446 19.2005 5.84111 18.9617 5.5384C18.4851 4.93401 17.7942 4.1266 16.9377 3.31678C15.2516 1.72274 12.7981 0 9.99557 0ZM2.20704 7.48284C2.0622 7.29919 1.93889 7.13596 1.83885 7C1.93889 6.86404 2.0622 6.70081 2.20704 6.51716C2.65054 5.95487 3.29116 5.20676 4.07992 4.461C5.6845 2.94393 7.77675 1.55556 9.99557 1.55556C12.2143 1.55556 14.3066 2.94393 15.9111 4.461C16.6999 5.20676 17.3405 5.95487 17.784 6.51716C17.9289 6.70081 18.0521 6.86404 18.1522 7C18.0521 7.13596 17.9289 7.29919 17.784 7.48284C17.3405 8.04513 16.6999 8.79324 15.9111 9.53898C14.3066 11.0561 12.2143 12.4444 9.99557 12.4444C7.77675 12.4444 5.6845 11.0561 4.07992 9.53898C3.29116 8.79324 2.65054 8.04513 2.20704 7.48284ZM12.2684 7C12.2684 8.28862 11.2508 9.33333 9.99547 9.33333C8.74019 9.33333 7.72257 8.28862 7.72257 7C7.72257 5.71138 8.74019 4.66667 9.99547 4.66667C11.2508 4.66667 12.2684 5.71138 12.2684 7ZM13.7837 7C13.7837 9.14781 12.0877 10.8889 9.99547 10.8889C7.90332 10.8889 6.20726 9.14781 6.20726 7C6.20726 4.85222 7.90332 3.11111 9.99547 3.11111C12.0877 3.11111 13.7837 4.85222 13.7837 7Z" fill="white"/>
</svg>
