<svg xmlns="http://www.w3.org/2000/svg" id="Ubisoft_Mark" data-name="Ubisoft Mark" viewBox="0 0 861.52 278">
  <path fill="#ffffff" id="SWIRL" d="m267.88,138.85C264.95-3.55,75.53-56.61,2.61,76.82c3.22,2.33,7.68,5.48,10.9,7.81-5.59,11.72-9.31,23.65-11.35,35.54-1.42,7.8-2.16,15.83-2.16,24.04,0,73.89,59.99,133.79,134,133.79s134-59.9,134-133.79c0-1.8-.05-3.58-.12-5.36Zm-234.8,23.89c-1.76,14.49-.66,19.02-.67,20.74l-3.22,1.17c-1.22-2.38-4.32-10.78-5.68-22.07-3.49-43.09,25.91-81.91,70.68-89.14,41.05-6.02,80.3,19.43,89.5,55.06l-3.23,1.17c-.96-1.06-2.68-3.94-8.88-10.22-49.51-49.66-127.32-26.88-138.49,43.28Zm127.5,24.1c-6.6,9.49-17.59,15.7-30.03,15.7-20.18,0-36.55-16.34-36.55-36.49s14.95-35.04,33.9-36.39h0c11.8-.47,22.79,5.89,28.03,16.22,5.64,11.13,3.58,24.86-5.21,34.11,3.29,2.29,6.58,4.57,9.87,6.86Zm76.2,1.41c-19.33,43.82-59.12,66.75-101.61,66.22-81.51-4.04-105.21-98.02-50.75-131.95l2.4,2.39c-.93,1.22-4.09,3.78-9.18,13.73-5.93,12.09-7.74,24.14-7.04,31.68,4.24,65.7,96.29,79.06,128,14.11C238.97,95.35,131.99,4.88,37.01,74.03l-2.19-2.19C59.8,32.7,108.62,15.18,155.24,26.89c71.3,17.8,109.57,92.05,81.55,161.37Z"/>
  <path fill="#ffffff" id="UBISOFT" d="m386.66,86.63v61.78c0,24.56-15.02,42.95-42.57,42.95s-42.57-18.39-42.57-42.95v-61.78h22.39v60.02c0,15,7.07,23.53,20.18,23.53s20.18-8.53,20.18-23.53v-60.02h22.39Zm83.26,73.25c0,17.8-13.99,30.6-36.53,30.6h-35.64v-102.97h34.32c19.88,0,32.99,9.56,32.99,24.86,0,11.62-5.45,18.68-13.55,22.06,10.9,4.12,18.41,11.62,18.41,25.45Zm-49.78-52.66v21.77h11.78c6.92,0,11.63-3.97,11.63-10.88s-4.71-10.89-11.63-10.89h-11.78Zm12.37,63.55c9.57,0,15.02-4.41,15.02-12.94s-5.45-12.94-15.02-12.94h-12.37v25.89h12.37Zm46.09-83.26h22.39v102.97h-22.39v-102.97Zm76.49,41.63c17.67,6.18,26.81,14.12,26.81,30.01,0,21.33-16.35,33.1-35.64,33.1-17.82,0-31.52-7.94-37.27-22.65l17.82-13.24c3.24,9.27,11.64,15,20.03,15,7.36,0,12.67-3.97,12.67-10.59,0-6.18-3.98-10-18.71-15.3-15.91-5.74-27.69-13.68-27.69-30.74s13.7-28.98,33.58-28.98c15.76,0,27.99,6.33,33.73,18.83l-17.82,12.36c-3.39-7.65-8.69-11.92-16.79-11.92-6.78,0-11.78,3.68-11.78,8.97,0,6.03,5.6,9.71,21.06,15.15Zm137.9,9.86c0,30.3-21.8,53.25-52.44,53.25s-52.44-22.51-52.44-49.72c0-17.65,6.92-30.45,17.09-38.83l-3.54-3.53c7.81-8.09,22.09-14.42,38.88-14.42,30.64,0,52.44,23.24,52.44,53.25Zm-22.68,0c0-18.53-11.78-32.07-29.75-32.07-10.46,0-18.26,3.97-22.98,9.12l3.53,3.53c-5.45,4.56-10.31,10.88-10.31,22.21,0,15.59,11.05,29.27,29.75,29.27s29.75-13.53,29.75-32.07Zm54.2-30.3v23.83h43.75v17.06h-43.75v40.89h-22.39v-102.97h70.55v21.18h-48.16Zm137.03,0h-28.87v81.79h-22.39v-81.79h-29.02v-21.18h80.27v21.18Z"/>
</svg>